<?xml version="1.0" standalone="no"?>
<!DOCTYPE svg PUBLIC "-//W3C//DTD SVG 20010904//EN"
 "http://www.w3.org/TR/2001/REC-SVG-20010904/DTD/svg10.dtd">
<svg version="1.0" xmlns="http://www.w3.org/2000/svg"
 width="408.000000pt" height="408.000000pt" viewBox="0 0 408.000000 408.000000"
 preserveAspectRatio="xMidYMid meet">
<metadata>
Created by potrace 1.11, written by Peter Selinger 2001-2013
</metadata>
<g transform="translate(0.000000,408.000000) scale(0.100000,-0.100000)"
fill="#000000" stroke="none">
<path d="M1135 3484 c-190 -29 -384 -104 -541 -207 -153 -101 -299 -274 -340
-404 -14 -41 -19 -88 -19 -163 0 -98 2 -110 33 -174 36 -78 134 -180 211 -222
25 -14 38 -23 29 -20 -9 3 -19 -1 -21 -8 -3 -7 6 -75 19 -151 14 -76 23 -143
21 -149 -2 -6 -12 5 -22 24 -13 24 -19 57 -20 104 0 67 -1 70 -28 79 -41 13
-53 4 -87 -62 -171 -339 67 -557 630 -578 409 -15 715 65 942 246 227 180 342
404 308 598 -12 73 -47 148 -87 192 -25 26 -29 27 -67 18 -59 -14 -67 -24 -56
-72 11 -46 11 -148 1 -185 -5 -17 -14 23 -29 128 -12 84 -25 159 -29 166 -6
10 -32 -7 -98 -66 -202 -180 -408 -303 -580 -348 -96 -25 -276 -42 -325 -30
-31 7 -27 8 30 9 151 2 371 61 531 141 243 121 427 317 484 512 21 75 21 186
-2 257 -19 62 -87 169 -118 185 -10 6 -27 21 -37 32 -25 30 -160 98 -243 122
-146 43 -322 52 -490 26z m131 -205 c25 -12 48 -33 59 -53 16 -30 17 -40 6
-76 -27 -90 -129 -150 -256 -150 -87 0 -141 27 -168 83 -23 47 -16 86 26 133
75 87 224 115 333 63z m412 -283 c36 -19 51 -36 62 -75 19 -67 -36 -152 -124
-192 -49 -22 -152 -25 -199 -5 -79 34 -110 120 -65 186 29 43 91 86 143 99 51
13 147 6 183 -13z m-434 -78 c21 -29 20 -31 -10 -67 -23 -27 -32 -31 -78 -31
-59 0 -76 12 -76 51 0 41 41 69 101 69 38 0 51 -4 63 -22z m-217 -109 c41 -17
68 -74 59 -122 -13 -72 -111 -152 -191 -157 -103 -7 -134 -1 -174 36 -22 19
-43 48 -46 65 -15 68 41 143 137 182 46 19 66 22 119 16 35 -3 78 -12 96 -20z
m742 -406 c-1 -5 0 -11 1 -15 1 -5 4 -12 5 -18 1 -5 4 -12 5 -15 1 -3 4 -9 5
-15 1 -5 4 -12 5 -15 1 -3 4 -9 5 -15 1 -5 4 -12 5 -15 1 -3 4 -9 5 -15 1 -5
4 -12 5 -15 1 -3 4 -9 5 -15 1 -5 3 -11 5 -12 10 -13 5 -40 -11 -54 -20 -18
-18 -22 -90 143 l-18 42 32 20 c38 23 37 23 36 14z m235 -145 c-131 -258 -590
-444 -1048 -425 -197 9 -340 50 -398 116 -13 14 -16 20 -8 14 23 -17 170 -51
299 -69 148 -21 376 -14 501 15 245 56 443 165 610 335 35 36 66 66 67 66 2 0
-8 -23 -23 -52z m-1076 -55 c-10 -2 -26 -2 -35 0 -10 3 -2 5 17 5 19 0 27 -2
18 -5z m399 -29 c-3 -3 8 -42 24 -87 32 -85 30 -97 -18 -97 -17 0 -25 8 -32
38 -6 20 -17 59 -25 85 -15 50 -15 51 29 60 11 3 22 5 24 6 2 0 2 -2 -2 -5z
m-439 -34 c8 0 12 -22 12 -75 0 -72 -1 -75 -24 -75 -25 0 -26 3 -42 114 -7 48
-6 49 17 43 13 -4 30 -7 37 -7z"/>
<path d="M2074 2969 c-17 -23 -87 -266 -80 -278 4 -5 23 -13 44 -16 128 -22
224 -76 270 -153 25 -44 27 -54 27 -167 -1 -132 -10 -179 -105 -525 -88 -322
-110 -532 -74 -708 48 -241 220 -431 512 -570 55 -26 116 -47 142 -50 l46 -4
199 218 c109 121 209 231 222 245 l24 26 -123 60 c-213 104 -336 213 -404 358
-45 97 -58 175 -51 298 7 120 33 224 127 512 125 381 128 498 17 613 -62 65
-137 100 -277 129 -106 22 -501 31 -516 12z m321 -91 c-3 -18 -11 -69 -18
-113 -12 -79 -12 -80 -43 -83 l-31 -3 13 98 c7 54 13 106 14 116 0 13 8 17 35
17 35 0 36 -1 30 -32z m342 -271 c10 -22 6 -26 -103 -80 -63 -31 -120 -57
-128 -57 -12 0 -33 49 -24 54 8 5 234 105 239 105 3 1 11 -9 16 -22z m-59
-442 c1 -1 0 -10 -4 -19 -5 -14 -24 -16 -125 -16 -117 0 -125 2 -113 35 6 14
21 15 123 9 64 -4 117 -8 119 -9z m-180 -416 c61 -7 112 -15 112 -18 -1 -37
-14 -51 -49 -51 -41 0 -254 21 -260 26 -2 2 2 17 9 35 12 27 17 30 44 25 17
-2 82 -10 144 -17z m165 -415 c5 -29 28 -17 -232 -124 -147 -61 -154 -63 -167
-45 -8 10 -14 24 -14 31 0 6 51 31 113 54 61 24 150 58 197 76 47 18 88 33 91
33 4 1 9 -11 12 -25z m255 -290 l23 -16 -88 -96 c-92 -100 -178 -184 -195
-191 -5 -2 -20 7 -33 19 l-24 23 142 138 c78 76 144 138 147 139 3 0 16 -7 28
-16z"/>
</g>
</svg>
